<svg xmlns="http://www.w3.org/2000/svg" viewBox="0 0 24 24" fill="none" stroke="currentColor" stroke-linecap="round" stroke-linejoin="round">
  <g transform="translate(12,12)">
    <circle r="2" fill="currentColor" stroke="none"/>
    <path d="M0,-8C3.5,-8 7,-5 7,0C7,4 4,7 0,7C-3,7 -5,4 -3,1" stroke-width="1.3"/>
    <path d="M0,-8C3.5,-8 7,-5 7,0C7,4 4,7 0,7C-3,7 -5,4 -3,1" stroke-width="1.3" transform="rotate(120)"/>
    <path d="M0,-8C3.5,-8 7,-5 7,0C7,4 4,7 0,7C-3,7 -5,4 -3,1" stroke-width="1.3" transform="rotate(240)"/>
    <circle cx="0" cy="-8" r="1.1" fill="currentColor" stroke="none"/>
    <circle cx="6.1" cy="4" r="1.1" fill="currentColor" stroke="none"/>
    <circle cx="-6.1" cy="4" r="1.1" fill="currentColor" stroke="none"/>
  </g>
</svg>
